# xmcd
#
# Track frame offsets: 
#        180
#        21747
#        55912
#        57201
#        75529
#        100902
#        151188
#        169404
#        202182
#        242413
#        288596
#
# Disc length: 4052 seconds
#
# Revision: 2
# Processed by: cddbd v1.5.2PL0 Copyright (c) Steve Scherf et al.
# Submitted via: ExactAudioCopy v1.0b3
#
DISCID=980fd20b
DTITLE=Popa Chubby - Hit the high hard one
DYEAR=1996
DGENRE=Blues
TTITLE0=Heart attack and vine
TTITLE1=Trail of tears
TTITLE2=Size 13
TTITLE3=What's so great about rock and roll
TTITLE4=Stoop down baby
TTITLE5=Long distance pain
TTITLE6=Caffeine and nicotine
TTITLE7=Isis
TTITLE8=Sweet goddess of love and beer
TTITLE9=San Catri
TTITLE10=Wild thing
EXTD=
EXTT0=
EXTT1=
EXTT2=
EXTT3=
EXTT4=
EXTT5=
EXTT6=
EXTT7=
EXTT8=
EXTT9=
EXTT10=
PLAYORDER=
